<svg width="55" height="37" viewBox="0 0 55 37" fill="none" xmlns="http://www.w3.org/2000/svg">
<path d="M3.885 31.8676V26.8726H19.092V31.8676H3.885ZM6.512 10.9996H15.651L22.2 36.8256H15.984L12.617 22.1736L11.063 15.2916L9.472 22.1736L6.031 36.8256H0L6.512 10.9996Z" fill="url(#paint0_radial_4638_6763)"/>
<path d="M44.6526 2.90407C45.0912 1.62047 46.8647 1.58159 47.3847 2.78745L47.4287 2.90481L48.0206 4.63585C48.1563 5.03283 48.3755 5.39612 48.6634 5.70118C48.9514 6.00625 49.3015 6.24601 49.69 6.40429L49.8491 6.4637L51.5801 7.0549C52.8636 7.49352 52.9025 9.2671 51.6974 9.78715L51.5801 9.83116L49.8491 10.4231C49.452 10.5586 49.0886 10.7778 48.7834 11.0658C48.4782 11.3538 48.2384 11.7039 48.08 12.0925L48.0206 12.2509L47.4295 13.9827C46.9909 15.2663 45.2174 15.3052 44.6981 14.1001L44.6526 13.9827L44.0615 12.2517C43.9259 11.8546 43.7067 11.4911 43.4188 11.1859C43.1308 10.8807 42.7807 10.6409 42.3921 10.4825L42.2337 10.4231L40.5028 9.83189C39.2185 9.39326 39.1796 7.61968 40.3854 7.10037L40.5028 7.0549L42.2337 6.4637C42.6307 6.32805 42.9939 6.10884 43.299 5.82085C43.604 5.53286 43.8438 5.1828 44.002 4.79428L44.0615 4.63585L44.6526 2.90407ZM51.9087 0.375C52.0459 0.375 52.1803 0.413492 52.2968 0.486103C52.4132 0.558714 52.5069 0.66253 52.5673 0.785755L52.6025 0.871573L52.8592 1.62413L53.6125 1.88086C53.75 1.92758 53.8705 2.01407 53.9588 2.12937C54.0471 2.24468 54.0992 2.3836 54.1085 2.52854C54.1177 2.67348 54.0838 2.81791 54.0109 2.94353C53.938 3.06914 53.8294 3.17029 53.699 3.23415L53.6125 3.26935L52.8599 3.52607L52.6032 4.27937C52.5564 4.41685 52.4699 4.53734 52.3545 4.62557C52.2392 4.71381 52.1003 4.76581 51.9553 4.775C51.8104 4.7842 51.666 4.75016 51.5404 4.6772C51.4149 4.60424 51.3138 4.49565 51.25 4.36519L51.2148 4.27937L50.9581 3.52681L50.2048 3.27009C50.0673 3.22337 49.9468 3.13687 49.8585 3.02157C49.7702 2.90626 49.7181 2.76734 49.7088 2.6224C49.6996 2.47746 49.7335 2.33303 49.8064 2.20741C49.8793 2.0818 49.9879 1.98065 50.1183 1.9168L50.2048 1.88159L50.9574 1.62487L51.2141 0.871573C51.2635 0.726654 51.3571 0.600848 51.4817 0.511795C51.6062 0.422742 51.7555 0.374908 51.9087 0.375Z" fill="url(#paint1_radial_4638_6763)"/>
<path d="M30.9835 36.8256V15.9946V10.9996H37.0885V15.9946V36.8256H30.9835ZM25.0635 31.8306H43.0085V36.8256H25.0635V31.8306Z" fill="url(#paint2_radial_4638_6763)"/>
<path fill-rule="evenodd" clip-rule="evenodd" d="M50.2048 1.88159L50.1183 1.9168C49.9879 1.98065 49.8793 2.0818 49.8064 2.20741C49.7335 2.33303 49.6996 2.47746 49.7088 2.6224C49.7181 2.76734 49.7702 2.90626 49.8585 3.02157C49.9468 3.13687 50.0673 3.22337 50.2048 3.27009L50.9581 3.52681L51.2148 4.27937L51.25 4.36519C51.3138 4.49565 51.4149 4.60424 51.5404 4.6772C51.666 4.75016 51.8104 4.7842 51.9553 4.775C52.1003 4.76581 52.2392 4.71381 52.3545 4.62557C52.4699 4.53734 52.5564 4.41685 52.6032 4.27937L52.8599 3.52607L53.6125 3.26935L53.699 3.23415C53.8294 3.17029 53.938 3.06914 54.0109 2.94353C54.0838 2.81791 54.1177 2.67348 54.1085 2.52854C54.0992 2.3836 54.0471 2.24468 53.9588 2.12937C53.8705 2.01407 53.75 1.92758 53.6125 1.88086L52.8592 1.62413L52.6025 0.871573L52.5673 0.785755C52.5069 0.66253 52.4132 0.558714 52.2968 0.486103C52.1803 0.413492 52.0459 0.375 51.9087 0.375C51.7555 0.374908 51.6062 0.422742 51.4817 0.511795C51.3571 0.600848 51.2635 0.726654 51.2141 0.871573L50.9574 1.62487L50.2048 1.88159ZM44.0615 4.63585L44.002 4.79428C43.8438 5.1828 43.604 5.53286 43.299 5.82085C42.9939 6.10884 42.6307 6.32805 42.2337 6.4637L40.5028 7.0549L40.3854 7.10037C39.1796 7.61968 39.2185 9.39326 40.5028 9.83189L42.2337 10.4231L42.3921 10.4825C42.7807 10.6409 43.1308 10.8807 43.4188 11.1859C43.7067 11.4911 43.9259 11.8546 44.0615 12.2517L44.6526 13.9827L44.6981 14.1001C45.2174 15.3052 46.9909 15.2663 47.4295 13.9827L48.0206 12.2509L48.08 12.0925C48.2384 11.7039 48.4782 11.3538 48.7834 11.0658C49.0886 10.7778 49.452 10.5586 49.8491 10.4231L51.5801 9.83116L51.6974 9.78715C52.9025 9.2671 52.8636 7.49352 51.5801 7.0549L49.8491 6.4637L49.69 6.40429C49.3015 6.24601 48.9514 6.00625 48.6634 5.70118C48.3755 5.39612 48.1563 5.03283 48.0206 4.63585L47.4287 2.90481L47.3847 2.78745C46.8647 1.58159 45.0912 1.62047 44.6526 2.90407L44.0615 4.63585Z" fill="url(#paint3_radial_4638_6763)"/>
<path d="M37.0885 10.9996V15.9946H43.0085V15.1941C42.9557 15.0972 42.9065 14.9963 42.8614 14.8915L42.8466 14.8574L42.7731 14.6675L42.1688 12.898C42.1256 12.7716 42.0558 12.6556 41.9641 12.5585C41.8771 12.4663 41.7723 12.3928 41.6561 12.3425L41.5592 12.3062L39.8563 11.7245C39.3644 11.5565 38.95 11.3063 38.6129 10.9996H37.0885Z" fill="url(#paint4_radial_4638_6763)"/>
<path d="M30.9835 15.9946V10.9996H25.0635V15.9946H30.9835Z" fill="url(#paint5_radial_4638_6763)"/>
<defs>
<radialGradient id="paint0_radial_4638_6763" cx="0" cy="0" r="1" gradientUnits="userSpaceOnUse" gradientTransform="translate(36.7175 -0.92681) rotate(121.561) scale(44.306 56.5286)">
<stop stop-color="#7BB4FF"/>
<stop offset="0.836852" stop-color="#2961F6"/>
</radialGradient>
<radialGradient id="paint1_radial_4638_6763" cx="0" cy="0" r="1" gradientUnits="userSpaceOnUse" gradientTransform="translate(36.7175 -0.92681) rotate(121.561) scale(44.306 56.5286)">
<stop stop-color="#7BB4FF"/>
<stop offset="0.836852" stop-color="#2961F6"/>
</radialGradient>
<radialGradient id="paint2_radial_4638_6763" cx="0" cy="0" r="1" gradientUnits="userSpaceOnUse" gradientTransform="translate(36.7175 -0.92681) rotate(121.561) scale(44.306 56.5286)">
<stop stop-color="#7BB4FF"/>
<stop offset="0.836852" stop-color="#2961F6"/>
</radialGradient>
<radialGradient id="paint3_radial_4638_6763" cx="0" cy="0" r="1" gradientUnits="userSpaceOnUse" gradientTransform="translate(36.7175 -0.92681) rotate(121.561) scale(44.306 56.5286)">
<stop stop-color="#7BB4FF"/>
<stop offset="0.836852" stop-color="#2961F6"/>
</radialGradient>
<radialGradient id="paint4_radial_4638_6763" cx="0" cy="0" r="1" gradientUnits="userSpaceOnUse" gradientTransform="translate(36.7175 -0.92681) rotate(121.561) scale(44.306 56.5286)">
<stop stop-color="#7BB4FF"/>
<stop offset="0.836852" stop-color="#2961F6"/>
</radialGradient>
<radialGradient id="paint5_radial_4638_6763" cx="0" cy="0" r="1" gradientUnits="userSpaceOnUse" gradientTransform="translate(36.7175 -0.92681) rotate(121.561) scale(44.306 56.5286)">
<stop stop-color="#7BB4FF"/>
<stop offset="0.836852" stop-color="#2961F6"/>
</radialGradient>
</defs>
</svg>
